<svg width="20" height="21" viewBox="0 0 20 21" fill="none" xmlns="http://www.w3.org/2000/svg">
<path d="M8.5 0.5C13.1944 0.5 17 4.30558 17 9C17 10.987 16.3182 12.8147 15.1758 14.2621L19.7071 18.7929C20.0976 19.1834 20.0976 19.8166 19.7071 20.2071C19.3166 20.5976 18.6834 20.5976 18.2929 20.2071L13.7621 15.6758C12.3147 16.8182 10.487 17.5 8.5 17.5C3.80558 17.5 0 13.6944 0 9C0 4.30558 3.80558 0.5 8.5 0.5ZM8.5 2.5C4.91015 2.5 2 5.41015 2 9C2 12.5899 4.91015 15.5 8.5 15.5C12.0899 15.5 15 12.5899 15 9C15 5.41015 12.0899 2.5 8.5 2.5Z" fill="#2975CC"/>
</svg>