<svg width="25" height="23" viewBox="0 0 25 23" fill="none" xmlns="http://www.w3.org/2000/svg">
<path d="M12.5001 17.1782L18.1901 20.6537C18.2363 20.6819 18.2919 20.6907 18.3445 20.6781C18.4547 20.6518 18.5227 20.5413 18.4964 20.4311L16.9494 13.9456L22.013 9.60809C22.0541 9.57285 22.0797 9.52277 22.084 9.46878C22.093 9.35592 22.0089 9.2571 21.896 9.24805L15.2499 8.71524L12.6894 2.55904C12.6686 2.50903 12.6288 2.46928 12.5788 2.44848C12.4743 2.40501 12.3543 2.4545 12.3108 2.55904L9.75032 8.71524L3.10419 9.24805C3.0502 9.25238 3.00011 9.2779 2.96488 9.31903C2.89122 9.40502 2.90122 9.53443 2.9872 9.60809L8.05086 13.9456L6.50383 20.4311C6.49126 20.4838 6.50005 20.5393 6.52828 20.5856C6.5873 20.6822 6.71347 20.7127 6.81009 20.6537L12.5001 17.1782ZM12.5001 19.5218L7.8526 22.3605C6.81334 22.9952 5.45626 22.6673 4.82148 21.6281C4.51781 21.1309 4.42324 20.5338 4.55841 19.9671L5.82199 14.6698L1.68609 11.127C0.761232 10.3348 0.653723 8.94278 1.44596 8.01792C1.82496 7.57548 2.36365 7.30101 2.94436 7.25445L8.37281 6.81925L10.4642 1.79098C10.9319 0.66657 12.2225 0.134177 13.3469 0.601844C13.8848 0.825571 14.3123 1.25308 14.536 1.79098L16.6274 6.81925L22.0559 7.25445C23.2697 7.35177 24.1749 8.41471 24.0776 9.62861C24.031 10.2093 23.7566 10.748 23.3141 11.127L19.1782 14.6698L20.4418 19.9671C20.7244 21.1516 19.9932 22.341 18.8086 22.6235C18.2419 22.7587 17.6448 22.6641 17.1476 22.3605L12.5001 19.5218Z" fill="#99A2AD"/>
</svg>
