<svg width="155" height="149" viewBox="0 0 155 149" fill="none" xmlns="http://www.w3.org/2000/svg">
<path d="M77.5 112.083L115.501 135.294C115.81 135.483 116.181 135.541 116.533 135.457C117.268 135.282 117.722 134.544 117.547 133.808L107.215 90.4942L141.033 61.5255C141.307 61.2901 141.478 60.9557 141.507 60.5951C141.567 59.8414 141.005 59.1814 140.251 59.121L95.8647 55.5625L78.7641 14.4479C78.6252 14.1139 78.3598 13.8485 78.0258 13.7096C77.3276 13.4192 76.5263 13.7497 76.2359 14.4479L59.1354 55.5625L14.7487 59.121C14.3881 59.1499 14.0537 59.3203 13.8183 59.595C13.3264 60.1693 13.3932 61.0336 13.9674 61.5255L47.7854 90.4942L37.4534 133.808C37.3695 134.16 37.4282 134.531 37.6168 134.839C38.0109 135.485 38.8536 135.688 39.4988 135.294L77.5 112.083ZM77.5 127.735L46.4613 146.693C39.5205 150.933 30.4572 148.743 26.2178 141.802C24.1897 138.481 23.5581 134.493 24.4608 130.709L32.8998 95.3308L5.27785 71.6697C-0.898881 66.3786 -1.61689 57.0822 3.67414 50.9054C6.2053 47.9506 9.80297 46.1175 13.6813 45.8065L49.9356 42.9001L63.903 9.31835C67.0263 1.80891 75.6459 -1.74672 83.1553 1.37663C86.7478 2.8708 89.6029 5.72593 91.0971 9.31835L105.064 42.9001L141.319 45.8065C149.426 46.4565 155.471 53.5554 154.821 61.6625C154.51 65.5408 152.677 69.1385 149.722 71.6697L122.1 95.3308L130.539 130.709C132.426 138.62 127.543 146.563 119.632 148.45C115.847 149.353 111.859 148.721 108.539 146.693L77.5 127.735Z" fill="#6D7885"/>
</svg>
